<svg width="218" height="218" viewBox="0 0 218 218" fill="none" xmlns="http://www.w3.org/2000/svg">
<g clip-path="url(#clip0_732_461)">
<path d="M109.426 158.084C82.3597 158.084 60.3349 136.063 60.3349 109.034C60.3349 82.0054 82.3631 59.9023 109.426 59.9023C131.771 59.9023 150.662 74.9102 156.582 95.3715H175.575C169.253 64.6403 142 41.4608 109.426 41.4608C72.1887 41.4608 41.8935 71.756 41.8935 108.997C41.8935 146.237 72.1887 176.529 109.426 176.529C142 176.529 169.253 153.356 175.575 122.622H156.551C150.631 143.079 131.74 158.047 109.395 158.047" fill="#CAE6F6"/>
<path d="M76.3341 142.088C80.6741 146.444 85.8322 149.899 91.5117 152.255C97.1913 154.61 103.28 155.821 109.429 155.815V136.25C105.85 136.253 102.305 135.55 98.9984 134.18C95.6916 132.81 92.6881 130.8 90.1601 128.266L76.3341 142.088Z" fill="#CAE6F6"/>
<path d="M62.6069 109C62.6069 115.7 64.0375 122.073 66.5786 127.843L84.4818 119.968C82.9576 116.513 82.1722 112.777 82.1758 109C82.1758 101.773 85.0468 94.8418 90.1571 89.7314C95.2675 84.621 102.199 81.75 109.426 81.75V62.1777C83.6064 62.1743 62.6069 83.1807 62.6069 109Z" fill="#2F80ED"/>
<path d="M126.399 65.3319L119.297 83.5792C125.071 85.8295 129.908 89.9758 133.014 95.3376H154.215C150.032 81.6274 139.684 70.5503 126.399 65.3319Z" fill="#CAE6F6"/>
<path d="M119.307 134.377L126.403 152.624C133 150.04 138.929 145.999 143.746 140.803C148.563 135.606 152.144 129.389 154.221 122.615H133.021C129.935 127.946 125.101 132.152 119.304 134.377" fill="#2F80ED"/>
<path d="M22.8014 135.187L21.9226 132.094L21.8715 131.904L21.163 129.008L21.0336 128.412L20.5124 125.898L20.3149 124.774L19.9742 122.754L19.7358 121.051C19.1952 117.066 18.9221 113.049 18.9183 109.027H0.422363C0.422247 113.414 0.687282 117.797 1.21602 122.152L1.25008 122.431L1.73717 125.939L1.89727 126.907L2.40821 129.768L2.74883 131.277L3.23933 133.542L3.72642 135.518L4.17605 137.279L5.10936 140.566H5.11617C6.39351 144.789 7.9093 148.911 9.66352 152.896L26.6096 145.443C25.1517 142.139 23.8914 138.716 22.8627 135.211L22.8014 135.187Z" fill="#CAE6F6"/>
<path d="M109.426 199.511C84.4716 199.511 61.8506 189.35 45.4632 172.959L32.3661 186.056C52.0917 205.785 79.3315 218 109.426 218C165.009 218 210.864 176.393 217.574 122.625H198.915C192.317 166.089 154.702 199.511 109.426 199.511ZM109.426 18.4857C128.937 18.4633 147.927 24.7825 163.534 36.4912L174.611 21.6399C155.8 7.55741 132.924 -0.0366113 109.426 9.75974e-06C63.1757 9.75974e-06 23.6564 28.8101 7.83093 69.4637L25.0802 76.174C38.2453 42.4419 71.0543 18.4857 109.426 18.4857Z" fill="#6E85E3"/>
<path d="M198.915 95.375H217.574C215.625 79.7114 210.275 64.6632 201.899 51.2845L186.186 61.0877C192.733 71.5242 197.065 83.1946 198.915 95.375Z" fill="#CAE6F6"/>
<path d="M177.891 95.3749H196.616C191.731 63.9795 170.227 38.0205 141.417 26.7731L134.731 43.9678C156.64 52.4834 173.215 71.8241 177.888 95.3749" fill="#6E85E3"/>
<path d="M109.426 39.1923V20.7543C72.049 20.7543 40.0336 44.1109 27.1921 76.9983L44.3732 83.6847C54.534 57.6678 79.8629 39.1923 109.426 39.1923Z" fill="#CAE6F6"/>
<path d="M39.6249 109H21.1869C21.1869 146.08 44.1791 177.874 76.6611 190.91L83.4736 173.797C57.8143 163.48 39.6249 138.328 39.6249 109Z" fill="#6E85E3"/>
<path d="M109.426 178.76V197.201C153.452 197.201 190.045 164.791 196.616 122.581H177.888C171.539 154.576 143.257 178.76 109.426 178.76Z" fill="#CAE6F6"/>
</g>
<defs>
<clipPath id="clip0_732_461">
<rect width="218" height="218" fill="white"/>
</clipPath>
</defs>
</svg>
