<svg width="372" height="304" viewBox="0 0 372 304" fill="none" xmlns="http://www.w3.org/2000/svg">
<path d="M372 266.504H0V266.707H372V266.504Z" fill="#EBEBEB"/>
<path d="M330.254 278.233H285.696V278.437H330.254V278.233Z" fill="#EBEBEB"/>
<path d="M252.142 273.83H213.029V274.033H252.142V273.83Z" fill="#EBEBEB"/>
<path d="M281.671 278.136H269.507V278.339H281.671V278.136Z" fill="#EBEBEB"/>
<path d="M77.9563 273.732H41.7458V273.935H77.9563V273.732Z" fill="#EBEBEB"/>
<path d="M89.0197 273.732H81.2598V273.935H89.0197V273.732Z" fill="#EBEBEB"/>
<path d="M150.534 275.482H125.498V275.685H150.534V275.482Z" fill="#EBEBEB"/>
<path d="M176.328 230.199H32.669C31.5436 230.197 30.465 229.706 29.6699 228.835C28.8748 227.964 28.4282 226.783 28.4282 225.551V4.60724C28.438 3.383 28.8889 2.21243 29.6829 1.34979C30.477 0.487145 31.55 0.00209718 32.669 0H176.328C177.455 0 178.535 0.489692 179.332 1.36135C180.129 2.23301 180.576 3.41523 180.576 4.64794V225.551C180.576 226.784 180.129 227.966 179.332 228.838C178.535 229.71 177.455 230.199 176.328 230.199ZM32.669 0.162801C31.5929 0.164957 30.5616 0.634159 29.8014 1.46742C29.0412 2.30068 28.6142 3.42991 28.6142 4.60724V225.551C28.6142 226.729 29.0412 227.858 29.8014 228.691C30.5616 229.524 31.5929 229.994 32.669 229.996H176.328C177.405 229.994 178.437 229.525 179.198 228.692C179.96 227.859 180.388 226.729 180.39 225.551V4.60724C180.388 3.42916 179.96 2.29995 179.198 1.46692C178.437 0.633895 177.405 0.164952 176.328 0.162801H32.669Z" fill="#EBEBEB"/>
<path d="M337.263 230.199H193.596C192.47 230.197 191.391 229.707 190.594 228.835C189.798 227.964 189.35 226.783 189.348 225.551V4.60724C189.36 3.38226 189.812 2.2117 190.608 1.34928C191.403 0.48686 192.477 0.00207431 193.596 0H337.263C338.38 0.00423646 339.452 0.490231 340.244 1.35265C341.036 2.21506 341.486 3.38441 341.496 4.60724V225.551C341.496 226.781 341.05 227.961 340.257 228.832C339.464 229.703 338.387 230.195 337.263 230.199ZM193.596 0.162801C192.519 0.164952 191.487 0.633895 190.726 1.46692C189.965 2.29995 189.536 3.42916 189.534 4.60724V225.551C189.536 226.729 189.965 227.859 190.726 228.692C191.487 229.525 192.519 229.994 193.596 229.996H337.263C338.339 229.994 339.372 229.525 340.133 228.692C340.894 227.859 341.323 226.729 341.325 225.551V4.60724C341.323 3.42916 340.894 2.29995 340.133 1.46692C339.372 0.633895 338.339 0.164952 337.263 0.162801H193.596Z" fill="#EBEBEB"/>
<path d="M315.694 34.945H235.952V169.809H315.694V34.945Z" fill="#E6E6E6"/>
<path d="M319.637 34.945H237.797V169.809H319.637V34.945Z" fill="#F0F0F0"/>
<path d="M315.694 169.809H235.952V173.227H317.539L315.694 169.809Z" fill="#E6E6E6"/>
<path d="M326.207 169.809H244.367L245.706 173.227H327.382L326.207 169.809Z" fill="#F0F0F0"/>
<path d="M314.117 163.769V40.9849L243.318 40.9849V163.769H314.117Z" fill="#FAFAFA"/>
<path d="M252.03 163.769L275.072 40.9849H290.368L267.327 163.769H252.03Z" fill="white"/>
<path d="M270.615 163.769L293.649 40.9849H299.616L276.575 163.769H270.615Z" fill="white"/>
<path d="M314.117 163.769V40.9849H313.417V163.769H314.117Z" fill="#E6E6E6"/>
<path d="M227.969 250.59H25.5863V266.504H227.969V250.59Z" fill="#E0E0E0"/>
<path d="M227.969 215.563H25.5863V250.59H227.969V215.563Z" fill="#F5F5F5"/>
<path d="M194.095 39.6744H25.5787V215.563H227.969L194.095 39.6744Z" fill="#F5F5F5"/>
<path d="M186.052 222.157H67.4958V234.09H186.052V222.157Z" fill="white"/>
<path d="M229.405 213.048H24.1501V218.071H229.405V213.048Z" fill="#E0E0E0"/>
<path d="M227.009 241.945H26.5459C24.853 241.945 23.4806 243.447 23.4806 245.299V255.881C23.4806 257.733 24.853 259.235 26.5459 259.235H227.009C228.702 259.235 230.075 257.733 230.075 255.881V245.299C230.075 243.447 228.702 241.945 227.009 241.945Z" fill="#EBEBEB"/>
<path d="M194.526 24.5991H25.7274C24.8563 24.5991 24.1501 25.3717 24.1501 26.3247V40.7732C24.1501 41.7263 24.8563 42.4989 25.7274 42.4989H194.526C195.397 42.4989 196.103 41.7263 196.103 40.7732V26.3247C196.103 25.3717 195.397 24.5991 194.526 24.5991Z" fill="#E0E0E0"/>
<path d="M190.442 48.1562H30.7496V95.4822H199.556L190.442 48.1562Z" fill="#E0E0E0"/>
<path d="M200.947 102.702H30.7496V150.028H210.061L200.947 102.702Z" fill="#E0E0E0"/>
<path d="M211.46 157.249H30.7496V204.566H220.566L211.46 157.249Z" fill="#E0E0E0"/>
<path d="M63.4855 64.3955H49.3644V95.4741H63.4855V64.3955Z" fill="#FAFAFA"/>
<path d="M43.4049 95.4822H49.3644V64.4037H43.4049V95.4822Z" fill="#F0F0F0"/>
<path d="M77.9339 132.617H59.4158V150.02H77.9339V132.617Z" fill="#FAFAFA"/>
<path d="M51.5963 150.028H59.4158V132.625H51.5963V150.028Z" fill="#F0F0F0"/>
<path d="M107.85 132.617H89.332V150.02H107.85V132.617Z" fill="#FAFAFA"/>
<path d="M81.5199 150.028H89.3394V132.625H81.5199V150.028Z" fill="#F0F0F0"/>
<path d="M93.2234 115.214H74.7052V132.617H93.2234V115.214Z" fill="#FAFAFA"/>
<path d="M66.8858 132.625H74.7052V115.222H66.8858V132.625Z" fill="#F0F0F0"/>
<path d="M147.617 132.617H129.099V150.02H147.617V132.617Z" fill="#FAFAFA"/>
<path d="M121.279 150.028H129.099V132.625H121.279V150.028Z" fill="#F0F0F0"/>
<path d="M177.533 132.617H159.015V150.02H177.533V132.617Z" fill="#FAFAFA"/>
<path d="M151.203 150.028H159.023V132.625H151.203V150.028Z" fill="#F0F0F0"/>
<path d="M162.906 115.214H144.388V132.617H162.906V115.214Z" fill="#FAFAFA"/>
<path d="M136.569 132.625H144.388V115.222H136.569V132.625Z" fill="#F0F0F0"/>
<path d="M87.2042 69.5563H73.0831V95.4822H87.2042V69.5563Z" fill="#FAFAFA"/>
<path d="M67.1237 95.4741H73.0831V69.5482H67.1237V95.4741Z" fill="#F0F0F0"/>
<path d="M110.931 64.3955H96.8094V95.4741H110.931V64.3955Z" fill="#FAFAFA"/>
<path d="M90.8499 95.4822H96.8094V64.4037H90.8499V95.4822Z" fill="#F0F0F0"/>
<path d="M134.649 69.5563H120.528V95.4822H134.649V69.5563Z" fill="#FAFAFA"/>
<path d="M114.568 95.4741H120.528V69.5482H114.568V95.4741Z" fill="#F0F0F0"/>
<path d="M158.375 64.3955H144.254V95.4741H158.375V64.3955Z" fill="#FAFAFA"/>
<path d="M138.295 95.4822H144.254V64.4037H138.295V95.4822Z" fill="#F0F0F0"/>
<path d="M182.094 69.5563H167.973V95.4822H182.094V69.5563Z" fill="#FAFAFA"/>
<path d="M162.013 95.4741H167.973V69.5482H162.013V95.4741Z" fill="#F0F0F0"/>
<path d="M71.915 199.666C71.3644 194.937 70.427 187.863 69.5491 183.386C68.5447 178.559 65.8291 171.746 61.6701 169.8V168.018C61.6701 167.859 61.6131 167.707 61.5115 167.595C61.4099 167.482 61.2717 167.418 61.127 167.415H57.5856C57.4401 167.417 57.3012 167.482 57.1984 167.594C57.0955 167.707 57.0369 167.859 57.035 168.018V169.752C56.2211 170.093 55.4528 170.553 54.7509 171.119C47.7871 176.605 52.0576 183.858 54.0069 188.718C52.6231 192.014 52.2511 196.662 52.1916 200.065C52.1797 200.646 52.274 201.225 52.469 201.766C52.664 202.307 52.9557 202.8 53.3271 203.216C53.6985 203.632 54.1421 203.963 54.6319 204.19C55.1216 204.416 55.6478 204.533 56.1794 204.534H67.9569C68.5193 204.533 69.0752 204.403 69.5882 204.151C70.1012 203.898 70.5596 203.53 70.9334 203.071C71.3072 202.611 71.5879 202.07 71.757 201.483C71.9262 200.896 71.98 200.277 71.915 199.666ZM57.3921 188.034C57.0448 188.17 56.6624 188.149 56.329 187.977C55.9956 187.804 55.7384 187.494 55.614 187.114L53.0918 179.438C52.9672 179.059 52.985 178.642 53.1412 178.277C53.2974 177.912 53.5792 177.63 53.9251 177.493C54.0779 177.432 54.2387 177.399 54.4012 177.395C54.6873 177.399 54.9655 177.498 55.1983 177.68C55.4312 177.862 55.6074 178.118 55.7032 178.412L58.2254 186.089C58.3499 186.467 58.3322 186.885 58.176 187.25C58.0198 187.614 57.738 187.896 57.3921 188.034Z" fill="#FAFAFA"/>
<path d="M61.5659 166.316H57.154C56.8212 166.316 56.5514 166.612 56.5514 166.976V168.644C56.5514 169.009 56.8212 169.304 57.154 169.304H61.5659C61.8988 169.304 62.1686 169.009 62.1686 168.644V166.976C62.1686 166.612 61.8988 166.316 61.5659 166.316Z" fill="#F0F0F0"/>
<path d="M97.464 199.666C96.9135 194.937 96.0207 187.863 95.0981 183.386C94.1012 178.559 91.3781 171.746 87.2266 169.8V168.018C87.2247 167.859 87.166 167.707 87.0632 167.594C86.9604 167.482 86.8215 167.417 86.676 167.415H83.1048C82.9601 167.418 82.822 167.482 82.7203 167.595C82.6187 167.707 82.5617 167.859 82.5617 168.018V169.752C81.7454 170.093 80.9747 170.553 80.2702 171.119C73.3064 176.605 77.5769 183.858 79.5262 188.718C78.1424 192.014 77.7778 196.662 77.7183 200.065C77.7054 200.647 77.799 201.225 77.9936 201.767C78.1882 202.309 78.4799 202.802 78.8515 203.219C79.2231 203.635 79.6671 203.966 80.1574 204.192C80.6476 204.418 81.1742 204.534 81.7061 204.534H93.5134C94.0751 204.532 94.6302 204.401 95.1423 204.148C95.6544 203.895 96.1119 203.527 96.4849 203.068C96.8579 202.608 97.1379 202.068 97.3066 201.481C97.4754 200.895 97.529 200.277 97.464 199.666ZM82.9114 188.034C82.5641 188.17 82.1817 188.149 81.8483 187.977C81.5149 187.804 81.2577 187.494 81.1332 187.114L78.6111 179.438C78.4869 179.058 78.5057 178.64 78.6633 178.275C78.821 177.91 79.1046 177.629 79.4518 177.493C79.6022 177.433 79.7605 177.4 79.9205 177.395C80.2076 177.398 80.487 177.497 80.7211 177.679C80.9552 177.861 81.1327 178.117 81.23 178.412L83.7521 186.089C83.8743 186.469 83.8545 186.886 83.6971 187.25C83.5397 187.614 83.2574 187.896 82.9114 188.034Z" fill="#FAFAFA"/>
<path d="M87.0852 166.316H82.6733C82.3405 166.316 82.0707 166.612 82.0707 166.976V168.644C82.0707 169.009 82.3405 169.304 82.6733 169.304H87.0852C87.4181 169.304 87.6879 169.009 87.6879 168.644V166.976C87.6879 166.612 87.4181 166.316 87.0852 166.316Z" fill="#F0F0F0"/>
<path d="M122.961 199.666C122.41 194.937 121.473 187.863 120.595 183.386C119.59 178.559 116.875 171.746 112.716 169.8V168.018C112.716 167.858 112.658 167.705 112.555 167.592C112.451 167.479 112.311 167.415 112.165 167.415H108.624C108.478 167.415 108.338 167.479 108.235 167.592C108.131 167.705 108.073 167.858 108.073 168.018V169.752C107.259 170.092 106.49 170.552 105.789 171.119C98.8254 176.605 103.089 183.858 105.001 188.718C103.624 192.014 103.252 196.662 103.193 200.065C103.181 200.646 103.275 201.225 103.47 201.766C103.665 202.307 103.957 202.8 104.328 203.216C104.7 203.632 105.143 203.963 105.633 204.19C106.123 204.416 106.649 204.533 107.181 204.534H119.04C119.599 204.526 120.15 204.391 120.658 204.136C121.166 203.881 121.619 203.512 121.989 203.053C122.358 202.594 122.636 202.056 122.803 201.472C122.971 200.889 123.024 200.274 122.961 199.666ZM108.43 188.034C108.083 188.17 107.701 188.149 107.367 187.977C107.034 187.804 106.777 187.494 106.652 187.114L104.16 179.446C104.038 179.066 104.058 178.649 104.215 178.285C104.372 177.92 104.655 177.639 105.001 177.501C105.151 177.441 105.309 177.408 105.469 177.403C105.757 177.405 106.037 177.504 106.271 177.686C106.505 177.868 106.682 178.124 106.779 178.421L109.301 186.097C109.361 186.286 109.385 186.487 109.374 186.687C109.362 186.888 109.315 187.083 109.234 187.263C109.153 187.443 109.04 187.604 108.902 187.736C108.765 187.869 108.604 187.97 108.43 188.034Z" fill="#FAFAFA"/>
<path d="M112.604 166.316H108.192C107.86 166.316 107.59 166.612 107.59 166.976V168.644C107.59 169.009 107.86 169.304 108.192 169.304H112.604C112.937 169.304 113.207 169.009 113.207 168.644V166.976C113.207 166.612 112.937 166.316 112.604 166.316Z" fill="#F0F0F0"/>
<path d="M148.48 199.666C147.93 194.937 147.029 187.863 146.114 183.386C145.11 178.559 142.394 171.746 138.235 169.8V168.018C138.235 167.859 138.178 167.707 138.077 167.595C137.975 167.482 137.837 167.418 137.692 167.415H134.151C134.005 167.417 133.866 167.482 133.763 167.594C133.661 167.707 133.602 167.859 133.6 168.018V169.752C132.786 170.093 132.018 170.553 131.316 171.119C124.352 176.605 128.623 183.858 130.535 188.718C129.151 192.014 128.779 196.662 128.719 200.065C128.708 200.646 128.802 201.225 128.997 201.766C129.192 202.307 129.484 202.8 129.855 203.216C130.226 203.632 130.67 203.963 131.16 204.19C131.649 204.416 132.176 204.533 132.707 204.534H144.522C145.084 204.533 145.64 204.403 146.153 204.151C146.666 203.898 147.125 203.53 147.498 203.071C147.872 202.611 148.153 202.07 148.322 201.483C148.491 200.896 148.545 200.277 148.48 199.666ZM133.957 188.034C133.61 188.17 133.227 188.149 132.894 187.977C132.561 187.804 132.303 187.494 132.179 187.114L129.657 179.438C129.532 179.059 129.55 178.642 129.706 178.277C129.862 177.912 130.144 177.63 130.49 177.493C130.643 177.433 130.804 177.4 130.966 177.395C131.252 177.399 131.531 177.498 131.763 177.68C131.996 177.862 132.172 178.118 132.268 178.412L134.79 186.089C134.915 186.467 134.897 186.885 134.741 187.25C134.585 187.614 134.303 187.896 133.957 188.034Z" fill="#FAFAFA"/>
<path d="M138.131 166.316H133.719C133.386 166.316 133.116 166.612 133.116 166.976V168.644C133.116 169.009 133.386 169.304 133.719 169.304H138.131C138.464 169.304 138.734 169.009 138.734 168.644V166.976C138.734 166.612 138.464 166.316 138.131 166.316Z" fill="#F0F0F0"/>
<path d="M173.999 199.666C173.449 194.937 172.556 187.863 171.633 183.386C170.636 178.559 167.913 171.746 163.762 169.8V168.018C163.762 167.939 163.748 167.86 163.72 167.787C163.692 167.714 163.652 167.648 163.601 167.592C163.549 167.536 163.489 167.491 163.422 167.461C163.355 167.431 163.284 167.415 163.211 167.415H159.677C159.531 167.415 159.391 167.479 159.288 167.592C159.185 167.705 159.127 167.858 159.127 168.018V169.752C158.31 170.093 157.54 170.553 156.835 171.119C149.871 176.605 154.142 183.858 156.054 188.718C154.67 192.014 154.306 196.662 154.246 200.065C154.233 200.647 154.327 201.225 154.521 201.767C154.716 202.309 155.008 202.802 155.379 203.219C155.751 203.635 156.195 203.966 156.685 204.192C157.175 204.418 157.702 204.534 158.234 204.534H170.041C170.604 204.533 171.159 204.403 171.672 204.151C172.185 203.898 172.644 203.53 173.018 203.071C173.391 202.611 173.672 202.07 173.841 201.483C174.01 200.896 174.064 200.277 173.999 199.666ZM159.476 188.034C159.129 188.17 158.747 188.149 158.413 187.977C158.08 187.804 157.823 187.494 157.698 187.114L155.176 179.438C155.052 179.058 155.071 178.64 155.228 178.275C155.386 177.91 155.67 177.629 156.017 177.493C156.167 177.433 156.325 177.4 156.486 177.395C156.773 177.398 157.052 177.497 157.286 177.679C157.52 177.861 157.698 178.117 157.795 178.412L160.317 186.089C160.441 186.468 160.422 186.887 160.265 187.252C160.107 187.616 159.824 187.898 159.476 188.034Z" fill="#FAFAFA"/>
<path d="M163.65 166.316H159.238C158.905 166.316 158.636 166.612 158.636 166.976V168.644C158.636 169.009 158.905 169.304 159.238 169.304H163.65C163.983 169.304 164.253 169.009 164.253 168.644V166.976C164.253 166.612 163.983 166.316 163.65 166.316Z" fill="#F0F0F0"/>
<path d="M199.526 199.666C198.975 194.937 198.075 187.863 197.16 183.386C196.156 178.559 193.44 171.746 189.281 169.8V168.018C189.281 167.858 189.223 167.705 189.12 167.592C189.017 167.479 188.877 167.415 188.731 167.415H185.197C185.051 167.415 184.91 167.479 184.807 167.592C184.704 167.705 184.646 167.858 184.646 168.018V169.752C183.831 170.092 183.063 170.552 182.362 171.119C175.398 176.605 179.661 183.858 181.573 188.718C180.197 192.014 179.825 196.662 179.765 200.065C179.753 200.646 179.848 201.225 180.043 201.766C180.238 202.307 180.529 202.8 180.901 203.216C181.272 203.632 181.716 203.963 182.206 204.19C182.695 204.416 183.222 204.533 183.753 204.534H195.568C196.13 204.532 196.685 204.401 197.198 204.148C197.71 203.895 198.168 203.527 198.542 203.068C198.915 202.609 199.196 202.068 199.366 201.482C199.535 200.896 199.59 200.277 199.526 199.666ZM184.996 188.034C184.648 188.17 184.266 188.149 183.933 187.977C183.599 187.804 183.342 187.494 183.217 187.114L180.695 179.438C180.573 179.058 180.593 178.641 180.75 178.276C180.908 177.912 181.19 177.631 181.536 177.493C181.686 177.433 181.845 177.4 182.005 177.395C182.292 177.397 182.572 177.496 182.806 177.678C183.041 177.86 183.218 178.116 183.314 178.412L185.836 186.089C185.961 186.468 185.942 186.887 185.784 187.252C185.626 187.616 185.343 187.898 184.996 188.034Z" fill="#FAFAFA"/>
<path d="M189.169 166.316H184.757C184.425 166.316 184.155 166.612 184.155 166.976V168.644C184.155 169.009 184.425 169.304 184.757 169.304H189.169C189.502 169.304 189.772 169.009 189.772 168.644V166.976C189.772 166.612 189.502 166.316 189.169 166.316Z" fill="#F0F0F0"/>
<path d="M186 303.264C265.669 303.264 330.254 299.138 330.254 294.049C330.254 288.96 265.669 284.835 186 284.835C106.331 284.835 41.7458 288.96 41.7458 294.049C41.7458 299.138 106.331 303.264 186 303.264Z" fill="#F5F5F5"/>
<path d="M231.674 47.7411C231.681 42.378 230.322 37.1189 227.749 32.5539C225.176 27.9889 221.492 24.2986 217.109 21.8973C212.726 19.496 207.818 18.4786 202.935 18.9593C198.053 19.44 193.39 21.3998 189.469 24.6187C185.548 27.8376 182.525 32.1883 180.739 37.1825C178.952 42.1768 178.473 47.6169 179.355 52.8924C180.237 58.168 182.446 63.0702 185.733 67.0489C189.02 71.0276 193.255 73.9254 197.963 75.4171L205.299 83.4431L212.628 75.4171C218.112 73.6801 222.934 70.0434 226.368 65.053C229.802 60.0626 231.664 53.9879 231.674 47.7411Z" fill="#90CAF9"/>
<path opacity="0.6" d="M206.564 28.433H204.027V66.4957H206.564C211.178 66.4957 215.602 64.4906 218.864 60.9215C222.126 57.3525 223.959 52.5118 223.959 47.4644C223.959 42.4169 222.126 37.5763 218.864 34.0072C215.602 30.4381 211.178 28.433 206.564 28.433Z" fill="#FAFAFA"/>
<path d="M216.329 60.9234C223.122 53.4912 223.122 41.4413 216.329 34.0091C209.536 26.5769 198.522 26.5769 191.729 34.0091C184.936 41.4413 184.936 53.4912 191.729 60.9234C198.522 68.3556 209.536 68.3556 216.329 60.9234Z" fill="#FAFAFA"/>
<path opacity="0.2" d="M213.915 37.444C211.362 34.868 207.999 33.4673 204.527 33.5331C201.054 33.5989 197.738 35.126 195.268 37.7972C192.798 40.4684 191.363 44.0781 191.263 47.8764C191.162 51.6747 192.403 55.3694 194.727 58.1928C193.414 56.8308 192.366 55.194 191.643 53.3796C190.92 51.5653 190.538 49.6104 190.519 47.6313C190.5 45.6521 190.846 43.6891 191.534 41.8588C192.223 40.0285 193.241 38.3684 194.527 36.9771C195.814 35.5857 197.343 34.4916 199.024 33.7597C200.705 33.0278 202.503 32.6731 204.311 32.7167C206.12 32.7602 207.902 33.2012 209.552 34.0133C211.202 34.8254 212.685 35.992 213.915 37.444Z" fill="#90CAF9"/>
<g opacity="0.2">
<path d="M209.183 43.492L205.857 44.0618C205.745 43.7214 205.592 43.3985 205.403 43.1013C205.213 42.876 204.986 42.6911 204.734 42.5559V45.3886C206.036 45.669 207.272 46.2398 208.365 47.0655C208.757 47.437 209.069 47.899 209.279 48.4184C209.489 48.9378 209.591 49.5015 209.577 50.0691C209.584 50.753 209.433 51.4277 209.138 52.0309C208.866 52.605 208.488 53.112 208.03 53.5205C207.605 53.9038 207.118 54.1965 206.594 54.3833C205.99 54.58 205.364 54.6868 204.734 54.7008V55.1973C204.735 55.291 204.719 55.384 204.687 55.4708C204.655 55.5577 204.607 55.6367 204.547 55.7033C204.487 55.77 204.415 55.8229 204.336 55.859C204.257 55.8951 204.172 55.9136 204.087 55.9136C204 55.9147 203.915 55.8969 203.835 55.8613C203.755 55.8257 203.682 55.773 203.621 55.7063C203.56 55.6395 203.512 55.5601 203.48 55.4727C203.447 55.3853 203.431 55.2917 203.432 55.1973V54.7008C202.704 54.6534 201.986 54.4973 201.297 54.2368C200.775 54.0262 200.295 53.7085 199.883 53.3007C199.51 52.9351 199.2 52.4996 198.968 52.0146C198.731 51.4882 198.568 50.9256 198.484 50.3459L202.1 49.89C202.159 50.3832 202.305 50.8589 202.532 51.2901C202.767 51.6231 203.077 51.8839 203.432 52.0471V48.5958C202.554 48.3541 201.696 48.0356 200.865 47.6434C200.287 47.3215 199.805 46.8257 199.475 46.2143C199.146 45.6029 198.983 44.9014 199.005 44.192C198.994 43.6497 199.086 43.1109 199.277 42.6103C199.468 42.1097 199.753 41.6586 200.114 41.2861C201.041 40.4301 202.219 39.9678 203.432 39.9837V39.7313C203.431 39.6369 203.447 39.5433 203.48 39.4559C203.512 39.3685 203.56 39.2891 203.621 39.2224C203.682 39.1556 203.755 39.1029 203.835 39.0673C203.915 39.0317 204 39.0139 204.087 39.015C204.172 39.015 204.257 39.0336 204.336 39.0697C204.415 39.1058 204.487 39.1587 204.547 39.2253C204.607 39.2919 204.655 39.3709 204.687 39.4578C204.719 39.5447 204.735 39.6376 204.734 39.7313V39.9837C205.828 39.9872 206.896 40.3502 207.799 41.0256C208.517 41.6385 209.008 42.5143 209.183 43.492ZM203.432 42.5071C203.127 42.5917 202.851 42.7696 202.636 43.0199C202.487 43.2226 202.408 43.4762 202.413 43.7362C202.406 44.0089 202.485 44.2758 202.636 44.4932C202.85 44.7481 203.126 44.9315 203.432 45.0223V42.5071ZM204.734 52.1448C205.154 52.0714 205.544 51.8582 205.85 51.5343C206.076 51.2761 206.202 50.9315 206.2 50.5738C206.191 50.2727 206.085 49.9846 205.902 49.7598C205.574 49.4175 205.172 49.1712 204.734 49.0435V52.1448Z" fill="#90CAF9"/>
</g>
<path d="M144.083 73.4147C145.943 64.5014 141.896 59.4871 135.691 56.63C129.486 53.7728 116.972 55.002 118.11 66.9759C118.275 69.0516 118.779 71.078 119.598 72.9588C116.704 77.5335 117.366 84.542 122.968 85.9828C129.3 87.6108 143.726 85.5351 148.026 82.9222C145.199 83.5083 142.61 80.4802 144.083 73.4147Z" fill="#263238"/>
<path d="M148.212 82.214C147.381 82.214 146.582 81.8642 145.98 81.2372C145.102 80.3337 143.748 78.0382 144.559 72.7146C145.765 64.8677 142.759 59.6906 135.356 56.7928C135.334 56.782 135.317 56.7627 135.307 56.7387C135.297 56.7146 135.296 56.6874 135.304 56.6625C135.307 56.6493 135.313 56.6369 135.321 56.6263C135.329 56.6157 135.339 56.607 135.35 56.6009C135.361 56.5947 135.374 56.5912 135.386 56.5906C135.399 56.59 135.411 56.5924 135.423 56.5974C142.915 59.5034 145.965 64.7863 144.745 72.7472C143.942 77.9731 145.251 80.2197 146.107 81.0825C146.49 81.4826 146.961 81.7677 147.475 81.9103C147.988 82.0529 148.527 82.0481 149.038 81.8965C149.063 81.8917 149.088 81.8975 149.109 81.9126C149.13 81.9278 149.144 81.9512 149.15 81.9779C149.153 81.9908 149.154 82.0042 149.152 82.0174C149.151 82.0307 149.147 82.0434 149.14 82.0548C149.134 82.0663 149.126 82.0762 149.116 82.084C149.106 82.0917 149.095 82.0972 149.083 82.1C148.797 82.1741 148.505 82.2124 148.212 82.214Z" fill="#263238"/>
<path d="M122.068 85.47C121.028 85.3472 120.046 84.8848 119.25 84.1429C118.454 83.401 117.88 82.414 117.604 81.3105C117.164 79.8188 117.122 78.2208 117.483 76.7039C117.844 75.1871 118.593 73.8145 119.643 72.7472C119.651 72.7386 119.662 72.7321 119.673 72.7279C119.684 72.7236 119.696 72.7219 119.707 72.7226C119.719 72.7234 119.731 72.7266 119.741 72.7323C119.752 72.7379 119.761 72.7457 119.769 72.7553C119.777 72.765 119.783 72.7762 119.787 72.7883C119.791 72.8005 119.792 72.8134 119.792 72.8262C119.791 72.8391 119.788 72.8516 119.783 72.8632C119.778 72.8748 119.77 72.8852 119.762 72.8937C118.741 73.9363 118.012 75.2755 117.662 76.7546C117.311 78.2337 117.353 79.7914 117.783 81.2454C118.043 82.3105 118.591 83.2647 119.356 83.9824C120.121 84.7001 121.066 85.1477 122.068 85.2665C122.092 85.2722 122.113 85.2866 122.128 85.3074C122.143 85.3282 122.15 85.354 122.15 85.3805C122.147 85.4031 122.137 85.424 122.123 85.4401C122.108 85.4563 122.089 85.4667 122.068 85.47Z" fill="#263238"/>
<path d="M150.362 102.767C150.526 104.713 150.742 106.837 151.01 108.864C151.278 110.891 151.545 112.934 151.917 114.986C152.595 119.002 153.543 122.958 154.752 126.821L155.243 128.221L155.466 128.864C155.466 128.864 155.466 128.864 155.407 128.864C155.262 128.708 155.073 128.61 154.871 128.588C154.76 128.588 154.908 128.645 155.146 128.588C155.833 128.386 156.492 128.082 157.103 127.684C157.873 127.208 158.618 126.686 159.335 126.121C160.823 124.957 162.311 123.679 163.732 122.287C165.153 120.895 166.611 119.487 167.988 118.071L170.458 120.358C168.134 123.998 165.469 127.362 162.505 130.395C161.696 131.183 160.846 131.92 159.96 132.601C158.95 133.4 157.837 134.031 156.657 134.473C155.811 134.776 154.915 134.879 154.03 134.774C152.847 134.611 151.759 133.98 150.973 132.999C150.641 132.582 150.361 132.12 150.139 131.624C150.097 131.543 150.06 131.458 150.028 131.371L149.946 131.176L149.782 130.785L149.142 129.222C147.592 125.08 146.399 120.787 145.579 116.402C145.147 114.237 144.775 112.063 144.492 109.89C144.21 107.717 143.972 105.551 143.852 103.231L150.362 102.767Z" fill="#FFC3BD"/>
<path d="M147.892 94.717C150.124 95.3438 151.419 111.648 151.419 111.648L145.422 115.588C145.422 115.588 141.799 103.541 142.357 98.3393C142.759 94.5705 146.196 94.2449 147.892 94.717Z" fill="#FFC3BD"/>
<path d="M167.913 117.615L171.358 111.656L173.315 118.429C173.315 118.429 170.488 121.685 167.928 120.871L167.913 117.615Z" fill="#FFC3BD"/>
<path d="M176.417 109.686L177.771 115.45L173.315 118.429L171.358 111.656L176.417 109.686Z" fill="#FFC3BD"/>
<path d="M135.081 286.373H141.464L144.18 260.724H135.415L135.081 286.373Z" fill="#FFC3BD"/>
<path d="M94.994 276.947L101.177 278.697L110.67 255.156L102.114 252.511L94.994 276.947Z" fill="#FFC3BD"/>
<path d="M102.159 277.574L95.5594 274.505C95.4466 274.45 95.3193 274.442 95.2014 274.482C95.0835 274.523 94.9833 274.609 94.9195 274.725L91.9435 280.089C91.8725 280.227 91.8291 280.379 91.816 280.537C91.8029 280.694 91.8205 280.852 91.8676 281.002C91.9147 281.151 91.9903 281.288 92.0893 281.403C92.1884 281.518 92.3086 281.608 92.442 281.668C94.7559 282.694 95.9239 283.06 98.8255 284.412C100.611 285.226 103.141 286.658 105.603 287.806C108.066 288.954 109.242 286.349 108.304 285.624C104.123 282.368 103.974 280.569 102.977 278.429C102.805 278.047 102.515 277.745 102.159 277.574Z" fill="#263238"/>
<path d="M141.687 285.559H134.515C134.391 285.558 134.271 285.606 134.176 285.694C134.082 285.782 134.02 285.905 134.002 286.04L133.176 292.226C133.161 292.383 133.177 292.541 133.222 292.691C133.267 292.841 133.34 292.978 133.437 293.095C133.534 293.212 133.652 293.305 133.784 293.368C133.916 293.432 134.059 293.464 134.203 293.463C136.703 293.414 137.923 293.26 141.062 293.26C143.004 293.26 147.014 293.48 149.693 293.48C152.371 293.48 152.513 290.582 151.397 290.321C146.397 289.141 144.425 287.513 142.744 285.966C142.444 285.703 142.072 285.559 141.687 285.559Z" fill="#263238"/>
<path d="M148.294 94.7008C148.294 94.7008 151.337 95.8729 145.244 136.85H119.315C119.754 125.307 119.769 118.193 114.725 94.5217C118.352 93.692 122.03 93.1479 125.728 92.8937C129.649 92.5879 133.585 92.5879 137.506 92.8937C142.558 93.4228 148.294 94.7008 148.294 94.7008Z" fill="#263238"/>
<path d="M126.897 78.4127C127.641 82.5559 128.385 90.1505 125.729 92.91C129.04 96.7548 132.896 99.99 137.149 102.491C140.832 95.9788 137.506 92.9181 137.506 92.9181C133.28 91.8111 133.392 88.3842 134.121 85.1607L126.897 78.4127Z" fill="#FFC3BD"/>
<path opacity="0.2" d="M129.843 81.164L134.121 85.1607C133.938 85.91 133.816 86.6754 133.756 87.448C132.142 87.1876 129.925 85.2502 129.754 83.378C129.665 82.64 129.695 81.8907 129.843 81.164Z" fill="black"/>
<path d="M122.901 70.818C124.389 77.5579 124.888 80.4395 128.593 83.3292C134.18 87.676 141.419 84.2002 141.799 77.1184C142.149 70.7366 139.664 60.7895 133.131 59.2592C131.692 58.9146 130.196 58.978 128.786 59.4436C127.375 59.9092 126.097 60.7614 125.072 61.9194C124.047 63.0774 123.31 64.5027 122.93 66.0601C122.55 67.6175 122.54 69.2553 122.901 70.818Z" fill="#FFC3BD"/>
<path d="M145.244 136.85C145.244 136.85 150.281 190.647 149.856 211.941C149.425 234.098 145.392 261.489 145.392 261.489H134.262C134.262 261.489 134.738 235.393 133.979 213.634C133.146 189.922 126.257 136.85 126.257 136.85H145.244Z" fill="#90CAF9"/>
<path d="M133.31 262.71H145.861L146.784 259.169L132.73 258.738L133.31 262.71Z" fill="#263238"/>
<path opacity="0.2" d="M134.061 150.24C140.43 164.249 135.341 189.817 133.087 199.324C131.933 185.038 129.984 167.578 128.466 154.758C129.456 147.505 131.123 143.777 134.061 150.24Z" fill="black"/>
<path d="M138.384 136.85C138.384 136.85 132.507 192.78 128.072 210.736C122.812 232.055 112.047 255.588 112.047 255.588L100.887 252.145C100.887 252.145 107.144 223.41 111.169 212.177C119.762 188.213 112.411 152.495 119.271 136.85H138.384Z" fill="#90CAF9"/>
<path d="M100.239 254.001L111.816 257.509L113.899 254.269L101.065 249.589L100.239 254.001Z" fill="#263238"/>
<path d="M133.303 70.9483C133.399 71.5018 133.734 71.9006 134.047 71.8355C134.359 71.7704 134.575 71.2657 134.485 70.7122C134.396 70.1587 134.054 69.7598 133.741 69.8249C133.429 69.89 133.213 70.3947 133.303 70.9483Z" fill="#263238"/>
<path d="M139.039 69.833C139.128 70.3947 139.47 70.7854 139.783 70.7285C140.095 70.6715 140.311 70.1586 140.222 69.6051C140.132 69.0516 139.79 68.6528 139.478 68.7179C139.165 68.783 138.949 69.2795 139.039 69.833Z" fill="#263238"/>
<path d="M139.329 68.7749L140.489 68.1562C140.489 68.1562 140.028 69.3202 139.329 68.7749Z" fill="#263238"/>
<path d="M137.409 71.0215C138.066 72.1987 138.867 73.2723 139.79 74.2124C139.566 74.4644 139.294 74.6593 138.993 74.7831C138.692 74.9069 138.37 74.9566 138.049 74.9287L137.409 71.0215Z" fill="#ED847E"/>
<path d="M135.363 77.5498C135.653 77.5467 135.942 77.5168 136.226 77.4602C136.246 77.4573 136.265 77.45 136.282 77.439C136.299 77.4279 136.314 77.4132 136.326 77.3957C136.337 77.3783 136.346 77.3585 136.351 77.3374C136.355 77.3163 136.356 77.2944 136.353 77.273C136.346 77.229 136.323 77.1898 136.289 77.1639C136.256 77.1381 136.215 77.1275 136.174 77.1346C135.547 77.2736 134.898 77.248 134.281 77.0598C133.664 76.8716 133.097 76.5263 132.625 76.052C132.596 76.0234 132.557 76.0076 132.518 76.0076C132.478 76.0076 132.44 76.0234 132.41 76.052C132.382 76.0838 132.366 76.1261 132.366 76.1701C132.366 76.214 132.382 76.2563 132.41 76.2881C133.207 77.1122 134.266 77.5646 135.363 77.5498Z" fill="#263238"/>
<path d="M130.319 57.9405C134.285 59.072 136.561 59.6744 137.848 60.9279C141.568 64.5421 127.797 64.9979 128.214 65.5921C130.237 73.8135 125.193 80.0081 122.262 73.1786C119.33 66.3492 117.254 63.0525 122.016 60.236C126.778 57.4196 130.319 57.9405 130.319 57.9405Z" fill="#263238"/>
<path d="M122.641 75.8892C122.874 76.5018 123.216 77.058 123.646 77.5259C124.077 77.9938 124.587 78.3643 125.148 78.6161C126.636 79.2836 127.581 77.851 127.313 76.1741C127.075 74.6845 125.996 72.5437 124.412 72.5844C124.063 72.5985 123.723 72.7086 123.423 72.9046C123.124 73.1005 122.874 73.3759 122.698 73.7054C122.521 74.0348 122.423 74.4076 122.414 74.7893C122.404 75.171 122.482 75.5493 122.641 75.8892Z" fill="#FFC3BD"/>
<path d="M131.085 67.2364C131.127 67.2375 131.169 67.2286 131.208 67.2103C131.246 67.192 131.281 67.1648 131.309 67.1306C131.56 66.8212 131.876 66.5822 132.229 66.4335C132.583 66.2848 132.963 66.2308 133.34 66.2759C133.419 66.2903 133.501 66.2704 133.568 66.2203C133.634 66.1702 133.681 66.0938 133.697 66.0072C133.71 65.921 133.691 65.8326 133.646 65.7611C133.6 65.6895 133.53 65.6405 133.451 65.6247C132.975 65.5601 132.491 65.6227 132.042 65.807C131.592 65.9912 131.19 66.2917 130.87 66.6829C130.842 66.7132 130.819 66.7493 130.804 66.7891C130.789 66.8289 130.781 66.8717 130.781 66.9149C130.781 66.958 130.789 67.0008 130.804 67.0406C130.819 67.0804 130.842 67.1166 130.87 67.1468C130.929 67.205 131.006 67.2369 131.085 67.2364Z" fill="#263238"/>
<path d="M140.467 66.3899C140.526 66.3884 140.583 66.3683 140.632 66.332C140.681 66.2958 140.719 66.2449 140.742 66.1855C140.764 66.1261 140.771 66.0608 140.761 65.9974C140.75 65.934 140.723 65.8752 140.683 65.8282C140.361 65.4373 139.957 65.1376 139.507 64.9548C139.056 64.7719 138.571 64.7113 138.094 64.7781C138.015 64.7958 137.946 64.8468 137.901 64.9199C137.857 64.9931 137.84 65.0826 137.856 65.1689C137.863 65.2112 137.878 65.2515 137.899 65.2876C137.921 65.3237 137.948 65.3547 137.981 65.3789C138.014 65.4031 138.05 65.4201 138.089 65.4287C138.127 65.4374 138.167 65.4376 138.206 65.4293C138.584 65.3863 138.966 65.4412 139.322 65.5896C139.677 65.7381 139.996 65.976 140.252 66.284C140.279 66.3165 140.313 66.3426 140.35 66.3608C140.387 66.3789 140.427 66.3888 140.467 66.3899Z" fill="#263238"/>
<path d="M117.961 104.664C116.674 108.343 115.439 112.21 114.353 116.011C113.255 119.76 112.405 123.59 111.808 127.472C111.726 127.953 111.689 128.409 111.645 128.872L111.578 129.564V129.866C111.652 130.406 111.832 130.923 112.106 131.38C112.988 132.95 114.013 134.42 115.164 135.767C117.552 138.681 120.305 141.465 123.02 144.216L121.145 147.09C117.759 144.953 114.563 142.473 111.6 139.682C109.999 138.206 108.567 136.522 107.337 134.668C106.497 133.443 105.943 132.013 105.722 130.5C105.702 130.23 105.702 129.957 105.722 129.686C105.722 129.516 105.722 129.507 105.722 129.418V129.206V128.392C105.722 127.822 105.774 127.261 105.834 126.715C106.251 122.414 107.028 118.163 108.155 114.017C109.202 109.925 110.464 105.902 111.935 101.97L117.961 104.664Z" fill="#FFC3BD"/>
<path d="M114.747 94.4973C112.21 95.6369 109.026 110.867 109.026 110.867L114.435 115.751C114.435 115.751 119.524 104.395 119.747 99.1615C119.918 95.238 117.001 93.496 114.747 94.4973Z" fill="#FFC3BD"/>
<path d="M105.068 279.772C105.186 279.708 105.289 279.616 105.369 279.501C105.449 279.387 105.504 279.254 105.529 279.112C105.558 279.018 105.562 278.916 105.543 278.819C105.523 278.721 105.48 278.632 105.417 278.559C104.867 277.9 102.59 278.331 102.337 278.38C102.307 278.387 102.28 278.403 102.258 278.426C102.235 278.449 102.219 278.478 102.211 278.51C102.207 278.542 102.211 278.574 102.221 278.604C102.231 278.633 102.248 278.66 102.27 278.681C102.955 279.226 104.219 280.106 104.986 279.813L105.068 279.772ZM102.746 278.648C103.661 278.502 104.904 278.437 105.194 278.779C105.222 278.813 105.24 278.854 105.248 278.898C105.256 278.943 105.253 278.988 105.239 279.031C105.221 279.137 105.179 279.235 105.116 279.318C105.054 279.401 104.973 279.465 104.882 279.503C104.472 279.666 103.684 279.34 102.746 278.648Z" fill="#90CAF9"/>
<path d="M103.416 278.339C104.078 277.989 104.755 277.444 104.852 276.947C104.877 276.818 104.861 276.683 104.805 276.566C104.749 276.448 104.658 276.356 104.547 276.304C104.447 276.24 104.335 276.201 104.219 276.188C104.104 276.175 103.987 276.19 103.877 276.231C103.007 276.556 102.278 278.404 102.248 278.478C102.235 278.504 102.228 278.533 102.228 278.563C102.228 278.593 102.235 278.622 102.248 278.648C102.266 278.67 102.287 278.687 102.312 278.698C102.336 278.71 102.363 278.715 102.389 278.714C102.747 278.646 103.093 278.52 103.416 278.339ZM103.885 276.589L103.974 276.548C104.043 276.52 104.117 276.51 104.19 276.517C104.264 276.524 104.335 276.548 104.398 276.589C104.569 276.695 104.569 276.801 104.554 276.882C104.465 277.362 103.394 278.087 102.65 278.315C102.907 277.632 103.326 277.037 103.862 276.589H103.885Z" fill="#90CAF9"/>
<path d="M144.083 286.78C144.628 286.834 145.173 286.685 145.631 286.357C145.733 286.256 145.811 286.129 145.857 285.987C145.904 285.845 145.918 285.692 145.898 285.543C145.895 285.452 145.87 285.363 145.826 285.286C145.781 285.209 145.719 285.146 145.645 285.103C144.901 284.631 142.32 286.056 142.03 286.219C142.002 286.236 141.98 286.261 141.966 286.291C141.951 286.321 141.945 286.356 141.948 286.39C141.955 286.423 141.971 286.454 141.993 286.478C142.015 286.503 142.044 286.52 142.074 286.528C142.735 286.679 143.408 286.763 144.083 286.78ZM145.221 285.34C145.316 285.334 145.41 285.354 145.497 285.397C145.527 285.414 145.552 285.439 145.571 285.471C145.589 285.502 145.599 285.538 145.601 285.576C145.614 285.672 145.606 285.771 145.576 285.864C145.546 285.956 145.496 286.039 145.43 286.105C145.035 286.487 143.986 286.552 142.573 286.3C143.398 285.815 144.294 285.49 145.221 285.34Z" fill="#90CAF9"/>
<path d="M142.104 286.528C142.123 286.535 142.144 286.535 142.163 286.528C142.907 286.154 144.395 284.648 144.314 283.858C144.314 283.671 144.165 283.435 143.741 283.394C143.591 283.375 143.44 283.39 143.296 283.439C143.153 283.489 143.02 283.57 142.907 283.679C142.104 284.412 141.955 286.284 141.948 286.365C141.947 286.394 141.952 286.422 141.964 286.448C141.976 286.473 141.993 286.495 142.015 286.512C142.041 286.53 142.073 286.536 142.104 286.528ZM143.592 283.695H143.681C143.956 283.695 143.979 283.85 143.986 283.882C144.053 284.363 143.034 285.51 142.26 286.056C142.319 285.265 142.603 284.513 143.071 283.907C143.214 283.768 143.401 283.695 143.592 283.703V283.695Z" fill="#90CAF9"/>
<path d="M118.928 135.189L118.296 137.729C118.207 137.924 118.423 138.128 118.72 138.128H145.4C145.631 138.128 145.824 137.997 145.839 137.835L146.077 135.303C146.077 135.124 145.891 134.977 145.631 134.977H119.353C119.271 134.969 119.189 134.984 119.115 135.022C119.04 135.059 118.976 135.116 118.928 135.189Z" fill="#90CAF9"/>
<path opacity="0.8" d="M118.928 135.189L118.296 137.729C118.207 137.924 118.423 138.128 118.72 138.128H145.4C145.631 138.128 145.824 137.997 145.839 137.835L146.077 135.303C146.077 135.124 145.891 134.977 145.631 134.977H119.353C119.271 134.969 119.189 134.984 119.115 135.022C119.04 135.059 118.976 135.116 118.928 135.189Z" fill="white"/>
<path d="M122.455 138.38H121.756C121.614 138.38 121.51 138.307 121.517 138.209L121.845 134.912C121.845 134.815 121.979 134.733 122.12 134.733H122.819C122.961 134.733 123.065 134.815 123.058 134.912L122.73 138.209C122.715 138.323 122.596 138.38 122.455 138.38Z" fill="#90CAF9"/>
<path d="M143.391 138.38H142.692C142.55 138.38 142.446 138.307 142.454 138.209L142.781 134.912C142.781 134.815 142.915 134.733 143.056 134.733H143.763C143.897 134.733 144.009 134.815 143.994 134.912L143.666 138.209C143.659 138.323 143.532 138.38 143.391 138.38Z" fill="#90CAF9"/>
<path d="M132.923 138.38H132.224C132.082 138.38 131.978 138.307 131.986 138.209L132.313 134.912C132.313 134.815 132.447 134.733 132.588 134.733H133.288C133.429 134.733 133.541 134.815 133.526 134.912L133.198 138.209C133.176 138.323 133.064 138.38 132.923 138.38Z" fill="#90CAF9"/>
<path d="M120.736 185.421L152.394 185.991L147.104 136.85L148.592 114.766L144.998 110.802C145.37 96.9637 143.51 93.5774 143.51 93.5774L140.966 93.1379C143.198 96.7276 142.826 106.667 142.454 110.061C137.201 109.043 129.709 110.061 129.709 110.061C129.322 100.016 123.579 92.682 123.579 92.682L121.347 93.0972C126.435 99.4789 127.455 110.761 127.455 110.761L122.016 116.142L122.76 121.359C121.524 121.712 120.237 121.789 118.973 121.587L119.122 123.875C120.442 124.195 121.82 124.058 123.065 123.484L124.903 136.548L120.736 185.421Z" fill="white"/>
<path d="M122.269 143.59L129.143 144.233L124.553 149.247C124.553 149.247 120.617 148.001 120.089 145.177L122.269 143.59Z" fill="#FFC3BD"/>
<path d="M133.072 148.229L129.017 152.21L123.578 148.856L129.144 144.233L133.072 148.229Z" fill="#FFC3BD"/>
<path d="M133.6 69.8819L134.761 69.2632C134.761 69.2632 134.3 70.4273 133.6 69.8819Z" fill="#263238"/>
<path d="M84.9351 148.799H205.508C206.942 148.799 208.318 149.423 209.332 150.532C210.347 151.642 210.917 153.147 210.917 154.717V294.082H84.9351V148.799Z" fill="#90CAF9"/>
<path opacity="0.3" d="M114.412 148.799H84.9351V294.082H114.412V148.799Z" fill="black"/>
<path opacity="0.3" d="M210.917 153.268H84.9351V157.737H210.917V153.268Z" fill="black"/>
<path d="M207.71 148.799H84.95V154.839H213.23C213.23 153.237 212.649 151.701 211.614 150.568C210.578 149.436 209.174 148.799 207.71 148.799Z" fill="#263238"/>
<path d="M174.952 128.612H156.396C153.973 128.612 151.574 129.134 149.336 130.149C147.098 131.163 145.065 132.651 143.352 134.525C141.639 136.4 140.281 138.625 139.354 141.075C138.428 143.524 137.951 146.149 137.952 148.799H174.952V128.612Z" fill="#90CAF9"/>
<path opacity="0.5" d="M174.952 128.612H156.396C153.973 128.612 151.574 129.134 149.336 130.149C147.098 131.163 145.065 132.651 143.352 134.525C141.639 136.4 140.281 138.625 139.354 141.075C138.428 143.524 137.951 146.149 137.952 148.799H174.952V128.612Z" fill="white"/>
<path d="M174.952 128.612H195.828C196.014 128.612 196.192 128.693 196.323 128.836C196.454 128.98 196.528 129.174 196.528 129.377V148.799H174.952V128.612Z" fill="#90CAF9"/>
<path opacity="0.7" d="M174.952 128.612H195.828C196.014 128.612 196.192 128.693 196.323 128.836C196.454 128.98 196.528 129.174 196.528 129.377V148.799H174.952V128.612Z" fill="white"/>
<path d="M169.439 125.901H192.503C193.151 125.916 193.767 126.208 194.221 126.715C194.674 127.222 194.928 127.903 194.928 128.612H166.961C166.961 127.893 167.222 127.204 167.687 126.695C168.151 126.187 168.781 125.901 169.439 125.901Z" fill="#90CAF9"/>
<path opacity="0.3" d="M169.439 125.901C168.781 125.901 168.151 126.187 167.687 126.695C167.222 127.204 166.961 127.893 166.961 128.612H174.55C174.55 128.255 174.614 127.902 174.739 127.573C174.864 127.243 175.047 126.944 175.278 126.692C175.509 126.441 175.783 126.241 176.084 126.105C176.386 125.97 176.709 125.9 177.035 125.901H169.439Z" fill="black"/>
<path d="M200.554 109.632L208.319 120.503C208.62 120.924 209.177 120.999 209.562 120.67L214.422 116.514C214.807 116.185 214.875 115.576 214.574 115.154L206.808 104.284C206.507 103.862 205.951 103.787 205.565 104.117L200.706 108.272C200.321 108.602 200.252 109.21 200.554 109.632Z" fill="#90CAF9"/>
<path d="M203.252 106.098L212.109 118.495L213.738 117.102L204.882 104.705L203.252 106.098Z" fill="#263238"/>
<path d="M201.823 109.321L204.622 113.24L206.251 111.846L203.452 107.928L201.823 109.321Z" fill="white"/>
<path d="M283.315 98.9986C283.501 99.3079 283.598 99.4708 283.717 99.6905L284.052 100.293C284.268 100.7 284.454 101.107 284.647 101.506C285.019 102.32 285.391 103.134 285.689 103.948C286.312 105.564 286.849 107.22 287.296 108.905C288.198 112.233 288.788 115.654 289.059 119.113L289.118 119.756C289.128 119.886 289.128 120.016 289.118 120.146V120.578C289.127 121.144 289.097 121.71 289.029 122.271C288.89 123.311 288.64 124.33 288.285 125.307C287.636 127.057 286.77 128.7 285.711 130.191C283.747 132.951 281.412 135.369 278.784 137.362L276.768 134.701C278.637 132.392 280.291 129.886 281.708 127.22C282.346 126.011 282.845 124.72 283.196 123.378C283.338 122.809 283.421 122.225 283.442 121.636C283.465 121.384 283.465 121.131 283.442 120.879V120.708C283.449 120.632 283.449 120.556 283.442 120.48L283.352 119.91C282.874 116.877 282.198 113.884 281.329 110.956C280.897 109.499 280.369 108.091 279.841 106.715C279.573 106.023 279.283 105.348 278.985 104.697L278.516 103.736L278.293 103.288L278.1 102.93L283.315 98.9986Z" fill="#FF8B7B"/>
<path d="M276.366 137.379L279.067 143.606L281.232 138.38C281.232 138.38 279.335 133.822 276.768 134.245L276.366 137.379Z" fill="#FF8B7B"/>
<path d="M283.338 143.606L285.48 139.764L281.202 138.339L279.067 143.606H283.338Z" fill="#FF8B7B"/>
<path d="M268.882 287.521C269.436 287.506 269.988 287.424 270.526 287.277C270.554 287.27 270.58 287.254 270.6 287.231C270.62 287.209 270.634 287.18 270.64 287.149C270.645 287.118 270.642 287.086 270.631 287.056C270.62 287.027 270.602 287.002 270.578 286.984C270.362 286.829 268.472 285.494 267.743 285.852C267.661 285.892 267.591 285.956 267.54 286.036C267.489 286.116 267.459 286.21 267.453 286.308C267.428 286.456 267.438 286.607 267.481 286.749C267.524 286.892 267.599 287.02 267.699 287.122C268.035 287.409 268.456 287.55 268.882 287.521ZM270.109 287.041C269.023 287.285 268.212 287.244 267.877 286.927C267.81 286.852 267.761 286.76 267.735 286.659C267.709 286.558 267.707 286.451 267.728 286.349C267.728 286.305 267.741 286.262 267.763 286.226C267.786 286.19 267.818 286.162 267.855 286.145C268.249 285.95 269.328 286.528 270.109 287.041Z" fill="#90CAF9"/>
<path d="M270.496 287.277H270.57C270.593 287.261 270.611 287.239 270.624 287.214C270.637 287.188 270.644 287.16 270.645 287.13C270.645 287.049 270.645 285.087 269.953 284.428C269.871 284.344 269.773 284.281 269.666 284.245C269.559 284.208 269.446 284.198 269.335 284.216C269.218 284.216 269.104 284.26 269.013 284.342C268.922 284.424 268.859 284.537 268.837 284.664C268.696 285.437 269.826 286.902 270.422 287.277H270.496ZM269.432 284.517C269.492 284.516 269.552 284.527 269.609 284.551C269.665 284.574 269.716 284.61 269.759 284.656C270.152 285.289 270.355 286.04 270.34 286.805C269.745 286.284 269.038 285.177 269.127 284.713C269.127 284.639 269.179 284.542 269.365 284.517H269.432Z" fill="#90CAF9"/>
<path d="M230.089 284.509C230.115 284.51 230.141 284.502 230.163 284.488C230.185 284.474 230.204 284.453 230.216 284.428C230.233 284.4 230.243 284.368 230.243 284.334C230.243 284.301 230.233 284.268 230.216 284.241C230.022 283.98 228.289 281.75 227.396 281.75H227.344C227.262 281.759 227.184 281.791 227.116 281.842C227.049 281.893 226.994 281.962 226.957 282.043C226.901 282.17 226.871 282.309 226.871 282.45C226.871 282.591 226.901 282.73 226.957 282.857C227.351 283.752 229.1 284.257 230.104 284.485L230.089 284.509ZM227.389 282.067C227.88 282.067 228.951 283.174 229.688 284.078C228.326 283.728 227.404 283.264 227.18 282.735C227.141 282.65 227.12 282.557 227.12 282.462C227.12 282.367 227.141 282.274 227.18 282.189C227.194 282.155 227.215 282.126 227.243 282.105C227.27 282.083 227.303 282.07 227.337 282.067H227.389Z" fill="#90CAF9"/>
<path d="M230.089 284.509C230.115 284.504 230.138 284.491 230.158 284.473C230.178 284.454 230.192 284.43 230.201 284.403C230.201 284.33 230.729 282.572 230.26 281.587C230.194 281.443 230.102 281.316 229.99 281.212C229.877 281.109 229.746 281.031 229.606 280.985C229.211 280.854 229.018 280.985 228.929 281.172C228.557 281.839 229.397 283.809 229.955 284.428C229.968 284.454 229.988 284.476 230.011 284.49C230.035 284.505 230.062 284.511 230.089 284.509ZM229.345 281.253C229.405 281.244 229.465 281.244 229.524 281.253C229.628 281.286 229.725 281.342 229.808 281.417C229.891 281.493 229.959 281.587 230.008 281.693C230.224 282.434 230.224 283.231 230.008 283.972C229.487 283.158 228.973 281.701 229.197 281.302C229.217 281.276 229.245 281.257 229.275 281.249C229.306 281.24 229.338 281.241 229.368 281.253H229.345Z" fill="#90CAF9"/>
<path d="M270.072 75.1566C269.328 79.2266 267.713 88.0259 270.303 90.7284C270.303 90.7284 269.291 94.7984 262.424 94.7984C254.865 94.7984 258.808 90.7284 258.808 90.7284C262.937 89.6539 262.825 86.3002 262.111 83.1582L270.072 75.1566Z" fill="#FF8B7B"/>
<path d="M257.424 65.6165C257.468 65.6241 257.514 65.6241 257.558 65.6165C257.593 65.5974 257.625 65.5709 257.651 65.5385C257.677 65.506 257.696 65.4682 257.709 65.4273C257.721 65.3864 257.726 65.3432 257.723 65.3002C257.72 65.2573 257.71 65.2154 257.692 65.1769C257.489 64.715 257.189 64.312 256.816 64.0008C256.444 63.6896 256.01 63.479 255.549 63.3861C255.472 63.379 255.395 63.4046 255.334 63.4575C255.273 63.5105 255.233 63.5868 255.222 63.671C255.213 63.7562 255.236 63.8415 255.285 63.9086C255.333 63.9756 255.404 64.019 255.482 64.0292C255.846 64.107 256.189 64.2782 256.481 64.5286C256.773 64.779 257.007 65.1016 257.164 65.47C257.191 65.5174 257.23 65.556 257.276 65.5818C257.321 65.6075 257.373 65.6195 257.424 65.6165Z" fill="#263238"/>
<path d="M255.192 69.19C254.606 70.3782 253.875 71.4736 253.02 72.446C253.251 72.6779 253.526 72.852 253.826 72.956C254.125 73.06 254.441 73.0915 254.753 73.0483L255.192 69.19Z" fill="#FF5652"/>
<path d="M255.757 68.2702C255.691 68.8155 255.378 69.2226 255.051 69.1819C254.723 69.1412 254.515 68.6609 254.575 68.1155C254.634 67.5701 254.954 67.1631 255.274 67.2038C255.594 67.2445 255.817 67.7248 255.757 68.2702Z" fill="#263238"/>
<path d="M255.415 67.2527L254.262 66.7154C254.262 66.7154 254.76 67.8225 255.415 67.2527Z" fill="#263238"/>
<path d="M236.689 287.065L230.618 285.535L233.467 270.044L239.538 271.583L236.689 287.065Z" fill="#FF8B7B"/>
<path d="M277.743 287.114H271.508L271.999 271.331H278.234L277.743 287.114Z" fill="#FF8B7B"/>
<path d="M271.017 286.324H278.018C278.139 286.323 278.257 286.371 278.349 286.457C278.44 286.544 278.5 286.665 278.516 286.797L279.312 292.853C279.328 293.006 279.314 293.161 279.271 293.308C279.228 293.454 279.157 293.59 279.063 293.704C278.969 293.819 278.854 293.91 278.725 293.973C278.596 294.035 278.456 294.067 278.315 294.066C275.875 294.025 274.7 293.862 271.619 293.862C269.722 293.862 266.955 294.082 264.343 294.082C261.732 294.082 261.583 291.249 262.677 290.997C267.557 289.841 268.331 288.262 269.975 286.748C270.266 286.476 270.635 286.326 271.017 286.324Z" fill="#263238"/>
<path d="M230.744 283.785L237.21 286.723C237.322 286.771 237.414 286.862 237.469 286.979C237.523 287.096 237.537 287.231 237.507 287.358L236.116 293.292C236.077 293.44 236.009 293.578 235.918 293.695C235.827 293.812 235.714 293.907 235.586 293.973C235.459 294.04 235.32 294.075 235.18 294.079C235.039 294.082 234.899 294.053 234.769 293.992C232.537 292.926 231.503 292.291 228.661 290.997C226.905 290.183 223.215 288.758 220.797 287.659C218.379 286.561 219.242 283.891 220.343 284.11C225.253 285.103 227.582 284.444 229.636 283.736C229.999 283.609 230.391 283.626 230.744 283.785Z" fill="#263238"/>
<path opacity="0.2" d="M233.467 270.053L231.942 278.347L238.073 279.568L239.538 271.583L233.467 270.053Z" fill="black"/>
<path opacity="0.2" d="M278.234 271.331H271.999L271.746 279.471H277.981L278.234 271.331Z" fill="black"/>
<path d="M281.031 92.275C283.62 92.9018 286.38 103.085 286.38 103.085L279.067 111.608C279.067 111.608 272.988 102.035 274.231 98.5103C275.518 94.8473 277.973 91.5424 281.031 92.275Z" fill="#90CAF9"/>
<path opacity="0.4" d="M276.924 98.7626C275.615 97.4521 274.729 97.8428 274.127 98.8847C273.532 101.913 277.058 108.254 278.479 110.655C279.134 107.79 279.885 101.75 276.924 98.7626Z" fill="black"/>
<path d="M248.258 92.4785C248.258 92.4785 245.282 93.6181 251.234 133.626H276.53C276.106 122.36 276.091 115.409 280.994 92.275C277.449 91.4749 273.856 90.958 270.243 90.7284C266.416 90.4269 262.575 90.4269 258.748 90.7284C253.853 91.225 248.258 92.4785 248.258 92.4785Z" fill="#90CAF9"/>
<path d="M255.408 89.8818C256.405 89.3202 264.269 87.5945 270.131 87.8631C273.479 88.0178 275.399 88.4899 276.827 89.3934C278.256 90.297 276.329 95.1728 275.265 95.7915C275.905 97.6148 273.613 100.032 272.289 101.188C271.887 102.938 266.337 104.705 262.654 101.099C259.827 98.3312 252.558 91.4773 255.408 89.8818Z" fill="#263238"/>
<path opacity="0.4" d="M248.027 107.831C248.191 109.776 248.407 111.966 248.689 114.44C250.765 112.397 252.462 106.585 251.837 103.199C250.354 104.516 249.068 106.079 248.027 107.831Z" fill="black"/>
<path d="M250.728 101.75C249.342 105.574 247.777 109.318 246.041 112.967C245.185 114.807 244.27 116.622 243.273 118.413C242.269 120.263 241.15 122.036 239.925 123.72L239.441 124.371L239.322 124.534L239.114 124.778C238.977 124.943 238.83 125.098 238.675 125.242C238.07 125.834 237.368 126.295 236.607 126.601C235.322 127.076 233.953 127.21 232.612 126.992C230.514 126.62 228.487 125.869 226.615 124.77C223.23 122.789 220.084 120.356 217.248 117.525L219.167 114.782C220.655 115.759 222.27 116.736 223.847 117.607C225.389 118.498 226.982 119.278 228.616 119.943C230.064 120.587 231.591 120.99 233.147 121.139C233.635 121.183 234.125 121.096 234.576 120.887C234.676 120.835 234.763 120.757 234.829 120.659L235.342 119.845C237.25 116.666 238.943 113.339 240.409 109.89C241.949 106.374 243.422 102.719 244.821 99.1533L250.728 101.75Z" fill="#FF8B7B"/>
<path d="M248.258 92.4785C245.155 93.2925 241.346 102.605 241.346 102.605L247.774 112.942C247.774 112.942 256.33 101.148 255.319 97.5497C254.255 93.7972 252.015 91.4691 248.258 92.4785Z" fill="#90CAF9"/>
<path d="M218.624 118.071L212.717 118.144L214.406 112.576C214.406 112.576 219.034 113.268 220.499 115.604L218.624 118.071Z" fill="#FF8B7B"/>
<path d="M208.312 117.428L209.443 112.576H214.406L212.717 118.144L208.312 117.428Z" fill="#FF8B7B"/>
<path d="M272.743 68.669C271.605 75.3194 271.255 78.1684 267.773 81.1883C262.565 85.7305 255.311 82.7512 254.604 75.8648C253.972 69.6621 255.936 59.829 262.23 57.9568C263.619 57.5385 265.082 57.5159 266.48 57.8913C267.879 58.2667 269.167 59.0275 270.22 60.1014C271.274 61.1752 272.059 62.5263 272.501 64.026C272.942 65.5257 273.026 67.1241 272.743 68.669Z" fill="#FF8B7B"/>
<path d="M259.567 68.5143C258.369 70.183 249.895 80.8546 254.761 84.9978C269.916 83.7036 274.238 89.4504 278.442 81.2616C282.646 73.0727 283.293 58.9661 271.597 56.5729C259.902 54.1798 253.488 57.159 259.567 68.5143Z" fill="#263238"/>
<path d="M257.238 68.2132C256.421 69.164 255.973 70.4247 255.988 71.7297C256.025 73.4635 257.513 73.7972 258.741 72.8774C259.849 72.0634 261.159 70.1587 260.534 68.6283C260.391 68.3007 260.175 68.018 259.905 67.807C259.635 67.596 259.321 67.4635 258.991 67.422C258.661 67.3805 258.328 67.4313 258.021 67.5697C257.714 67.7081 257.445 67.9296 257.238 68.2132Z" fill="#FF8B7B"/>
<path d="M257.915 133.626C257.915 133.626 261.531 180.423 265.288 206.797C268.316 228.099 270.704 277.891 270.704 277.891H279.208C279.208 277.891 282.229 229.589 280.696 208.522C276.805 155.205 285.488 150.859 276.552 133.634L257.915 133.626Z" fill="#263238"/>
<path opacity="0.4" d="M264.983 149.247C262.766 152.925 261.175 157.012 260.288 161.31C261.032 169.206 261.858 177.94 262.781 186.341C265.147 179.34 267.736 165.161 264.983 149.247Z" fill="black"/>
<path d="M251.234 133.626C251.234 133.626 244.21 186.129 241.74 206.756C239.174 228.205 231.674 276.288 231.674 276.288L239.999 277.688C239.999 277.688 254.202 232.006 256.844 210.94C259.723 187.985 270.578 133.61 270.578 133.61L251.234 133.626Z" fill="#263238"/>
<path d="M230.447 276.329L241.115 278.315L242.328 273.911L230.908 271.77L230.447 276.329Z" fill="#90CAF9"/>
<path d="M269.544 278.079H280.369L280.934 273.927L269.484 273.504L269.544 278.079Z" fill="#90CAF9"/>
<path d="M276.924 131.998L278.063 134.481C278.152 134.676 277.943 134.872 277.653 134.872H251.107C250.877 134.872 250.691 134.75 250.676 134.587L250.445 132.145C250.445 131.974 250.631 131.827 250.877 131.827H276.508C276.585 131.816 276.663 131.825 276.736 131.855C276.808 131.885 276.873 131.934 276.924 131.998Z" fill="#EBEBEB"/>
<path d="M273.479 135.124H274.164C274.305 135.124 274.409 135.043 274.395 134.953L274.075 131.697C274.075 131.599 273.948 131.526 273.807 131.526H273.122C272.988 131.526 272.884 131.599 272.892 131.697L273.212 134.953C273.227 135.059 273.346 135.124 273.479 135.124Z" fill="#263238"/>
<path d="M256.844 135.124H257.528C257.662 135.124 257.766 135.043 257.759 134.953L257.439 131.697C257.439 131.599 257.305 131.526 257.171 131.526H256.487C256.345 131.526 256.241 131.599 256.256 131.697L256.576 134.953C256.583 135.059 256.68 135.124 256.844 135.124Z" fill="#263238"/>
</svg>
